<svg viewBox="0 0 24 24" xmlns="http://www.w3.org/2000/svg" width="24" height="24">
    <path d="M4.53313 4.5C5.07613 12.544 11.4551 18.923 19.5001 19.466V16.003C18.0891 15.875 16.7831 15.49 15.3931 14.797L13.5791 16.29C13.2601 16.612 12.6931 16.671 12.2511 16.391C10.3761 15.188 8.81313 13.629 7.60613 11.756C7.33713 11.343 7.37813 10.793 7.70913 10.419C7.71513 10.413 7.72013 10.407 7.72713 10.399C7.76013 10.356 7.82513 10.269 7.90913 10.157C8.34013 9.576 8.77413 9.001 9.12013 8.586C8.47313 7.264 8.11413 5.964 7.99213 4.5H4.53313ZM20.2501 21H20.2341C10.7681 20.801 3.19813 13.231 2.99999 3.765C2.99613 3.564 3.07313 3.369 3.21413 3.225C3.35513 3.081 3.54913 3 3.75013 3H8.70113C9.10613 3 9.43813 3.322 9.45113 3.727C9.50313 5.457 9.87213 6.837 10.6821 8.344C10.8401 8.635 10.7871 8.996 10.5531 9.23C10.2141 9.57 9.44213 10.608 9.11313 11.051C9.07913 11.096 9.04813 11.137 9.01913 11.175C10.0361 12.687 11.3131 13.961 12.8231 14.972L14.8231 13.325C15.0591 13.129 15.3881 13.098 15.6551 13.244C17.2601 14.108 18.6411 14.499 20.2721 14.547C20.6771 14.56 21.0001 14.892 21.0001 15.297V20.25C21.0001 20.451 20.9191 20.644 20.7741 20.786C20.6351 20.922 20.4461 21 20.2501 21Z"
          fill="#2167ae"></path>
</svg>
